<svg id="Layer_1" data-name="Layer 1" xmlns="http://www.w3.org/2000/svg" viewBox="0 0 512 512"><defs><style>.cls-1{fill:#94a3b8;fill-rule:evenodd;}</style></defs><path class="cls-1" d="M449.45,0A62.58,62.58,0,0,1,512,62.55v386.9A62.58,62.58,0,0,1,449.45,512H62.55A62.58,62.58,0,0,1,0,449.45V62.55A62.58,62.58,0,0,1,62.55,0Zm-289,423.28V197.56h-75V423.28Zm270.54,0V293.84c0-69.33-37-101.59-86.38-101.59-39.8,0-57.63,21.89-67.62,37.27v-32H202c1,21.18,0,225.72,0,225.72h75V297.22c0-6.75.49-13.49,2.48-18.31,5.41-13.48,17.76-27.44,38.49-27.44,27.13,0,38,20.71,38,51V423.28ZM123.45,88.72c-25.68,0-42.45,16.88-42.45,39,0,21.66,16.26,39,41.46,39h.48c26.16,0,42.45-17.35,42.45-39C164.91,105.63,149.15,88.77,123.45,88.72Z"/></svg>